<?xml version="1.0" encoding="utf-8"?>
<!-- Generator: Adobe Illustrator 25.4.1, SVG Export Plug-In . SVG Version: 6.00 Build 0)  -->
<svg version="1.1" id="Layer_1" xmlns="http://www.w3.org/2000/svg" xmlns:xlink="http://www.w3.org/1999/xlink" x="0px" y="0px"
	 viewBox="0 0 500 190" style="enable-background:new 0 0 500 190;" xml:space="preserve">
<style type="text/css">
	.st0{fill:#19A14A;}
	.st1{font-family:'BarlowCondensed-Regular';}
	.st2{font-size:62.1733px;}
	.st3{fill:url(#SVGID_1_);}
	.st4{fill:url(#SVGID_00000119119203616590065200000011908131949125602968_);}
	.st5{fill:url(#SVGID_00000152981531930615829280000004549185363889059236_);}
</style>
<g>
	<g>
		<path class="st0" d="M21.1,186.1c-0.3,0-0.6-0.1-0.9-0.2c-0.7-0.3-1.2-0.8-1.5-1.5l-17.2-41c-0.3-0.7-0.3-1.5-0.1-2.2
			s0.7-1.3,1.4-1.6l12.9-6.2c1.3-0.7,2.8-0.1,3.5,1.3l17.4,40.8c0.6,1.4,0.1,3.1-1.3,3.8l-13,6.5l0,0
			C21.9,186,21.5,186.1,21.1,186.1L21.1,186.1z M7.3,143.6l15.1,35.9l8.1-4.1l-15.3-35.7L7.3,143.6z"/>
		<path class="st0" d="M80.5,176.6c-10.3-0.6-20.5-1.9-30.6-3.9c-4.1-0.7-7.9-1.3-9.7-1.5l-7.1,3.6c-1.3,0.6-2.9,0-3.5-1.4l-13-30.7
			l0,0c-0.3-0.7-0.4-1.5-0.2-2.2c0.2-0.7,0.7-1.3,1.3-1.7l7.4-3.8c6.8-6,17.9-12.9,27.4-11.8c3.8,0.6,7.5,1.9,11,3.8
			c6.8,3.6,14.3,5.8,21.9,6.4c3.7,0,7.2,1.1,10.4,3.2c6.3-5.9,24.1-20.3,31-16.6c1.9,1,3.8,3.6,2.1,9.9c-4,13.9-34.5,44.2-44.3,46.4
			l0,0C83.3,176.6,81.9,176.7,80.5,176.6L80.5,176.6z M39.8,165.3H40c1.8,0.1,5.8,0.8,10.9,1.7c10.3,1.8,27.5,4.7,32.9,3.6
			c7.2-1.7,36.6-29.8,40.2-42.5c0.4-1,0.5-2.1,0.4-3.1c-3.9-1.1-23.4,13.3-26.5,17.2c-0.5,0.7-1.4,1.1-2.2,1.1
			c-0.9,0-1.6-0.5-2.1-1.3c-1-1.7-4-2.8-8.4-3l0,0c-8.2-0.7-16.3-3-23.7-6.9c-2.9-1.6-6-2.7-9.2-3.2c-7.4-0.7-17.2,4.9-23.6,10.9
			l0,0c-0.2,0.2-0.4,0.3-0.6,0.4l-5.3,2.8l10.9,25.4l5.3-2.6l0,0C39.1,165.5,39.4,165.4,39.8,165.3L39.8,165.3z"/>
		<path class="st0" d="M100.1,119.1h-0.2c-6.6-0.3-12.8-3.6-16.9-9.1c-4.2,5.5-10.4,8.8-17,9.1c-0.9,0.1-1.7-0.3-2.2-1
			c-0.6-0.7-0.7-1.7-0.5-2.6c0.5-1.9,1.1-3.7,1.9-5.4c-11.3,4.4-23.7,3.3-34.1-3c-0.8-0.5-1.3-1.4-1.3-2.4s0.4-1.9,1.2-2.5
			c6.5-4.7,13.9-7.7,21.6-8.9c-14.3-7.6-25.5-20.5-31.8-36.4c-0.4-0.9-0.3-2,0.3-2.8c0.6-0.8,1.5-1.3,2.4-1.2
			C40.2,54.2,55.8,62,67.3,75C62.8,53,67.4,29.3,81,4.2l0,0c0.5-0.9,1.3-1.4,2.3-1.4c0.9,0,1.8,0.5,2.3,1.4
			c13.5,25.1,18,48.6,13.3,70.5c11.7-13,27.3-20.9,44-22.1c0.9-0.1,1.8,0.4,2.4,1.2c0.5,0.8,0.6,1.9,0.2,2.8
			c-6.3,15.8-17.6,28.5-31.8,36.3c7.7,1.2,15.1,4.2,21.5,8.9c0.8,0.5,1.2,1.5,1.2,2.5s-0.6,1.9-1.4,2.4c-10.5,6.3-22.9,7.4-34.2,3
			c0.8,1.7,1.4,3.6,1.9,5.4c0.2,0.9,0,1.8-0.5,2.5s-1.3,1.1-2.2,1.1L100.1,119.1z M83,101.7L83,101.7c1,0,1.9,0.6,2.3,1.6
			c2,4.6,5.9,8,10.6,9.3c-1.4-3-3.3-5.6-5.7-7.7c-1.1-0.9-1.3-2.6-0.5-3.8s2.4-1.5,3.5-0.7c12.5,7.5,23.8,8.8,34.8,4.1
			c-9.3-5.5-20.3-7.2-30.8-4.8c-1.5,0.3-2.9-0.6-3.2-2.2c-0.3-1.6,0.6-3.1,2.1-3.5c8.9-2,17.4-6.2,24.7-12.2s13.3-13.7,17.5-22.4
			c-20.7,3.5-36,15.2-46.6,35.6l0,0c-0.7,1.3-2.3,1.8-3.6,1.1c-1.3-0.8-1.7-2.5-1.1-3.8c11.9-24,10.6-51.1-4.1-80.4
			C68,41.2,66.6,68.1,78.5,92.3c0.7,1.4,0.3,3.1-1,3.9s-2.9,0.3-3.6-1.1c-4.6-9.4-11.2-17.7-19.3-23.8C46.5,65,37.2,61,27.4,59.4
			c4.2,8.7,10.3,16.5,17.5,22.5c7.3,6,15.8,10.3,24.7,12.3c1.5,0.3,2.4,1.9,2.1,3.5s-1.7,2.6-3.2,2.2c-10.5-2.5-21.5-0.8-31,4.6
			c10.9,4.6,22.4,3.3,34.8-4.1c1.2-0.7,2.7-0.3,3.5,0.9c0.8,1.2,0.5,2.9-0.5,3.8c-2.4,2.1-4.4,4.7-5.7,7.7c4.7-1.3,8.6-4.8,10.9-9.5
			C81.1,102.2,82,101.7,83,101.7L83,101.7z"/>
		<path class="st0" d="M77,154.3c-5.8-0.1-11.7-0.5-17.4-1.4c-1.4-0.2-2.5-1.6-2.3-3.2c0.2-1.5,1.4-2.6,2.8-2.5
			c21.9,2.8,29.4,0.4,31.8-2.2c1-1.1,1.4-2.6,1.1-4c-0.2-1.6,0.8-3,2.3-3.2c0.7-0.1,1.4,0.1,2,0.6s0.9,1.1,1,1.9
			c0.5,3.2-0.5,6.5-2.6,8.7C92.6,152.6,86.5,154.3,77,154.3L77,154.3z"/>
	</g>
	<text transform="matrix(0.8887 0 0 1 168.7588 188.7979)" class="st0 st1 st2">THE HAPPY STORE</text>
	<g>
		<g>
			
				<linearGradient id="SVGID_1_" gradientUnits="userSpaceOnUse" x1="169.9" y1="64.4903" x2="473.2009" y2="64.4903" gradientTransform="matrix(1 0 0 1 0 2)">
				<stop  offset="0" style="stop-color:#1C733C"/>
				<stop  offset="1" style="stop-color:#97CA41"/>
			</linearGradient>
			<path class="st3" d="M269.1,3.5c0.6,0.4,0.9,0.9,0.9,1.5v13.9c0,0.6-0.3,1.1-0.9,1.5S267.8,21,267,21h-32c-0.8,0-1.3,0.3-1.3,0.9
				V128c0,0.6-0.3,1.1-0.9,1.5c-0.6,0.4-1.3,0.6-2.1,0.6h-23.2c-0.8,0-1.5-0.2-2.1-0.6c-0.6-0.4-0.9-0.9-0.9-1.5V22
				c0-0.6-0.4-0.9-1.3-0.9h-30.3c-0.8,0-1.5-0.2-2.1-0.6s-0.9-0.9-0.9-1.5V5c0-0.6,0.3-1.1,0.9-1.5c0.6-0.4,1.3-0.6,2.1-0.6h94
				C267.8,2.8,268.5,3.1,269.1,3.5z"/>
			
				<linearGradient id="SVGID_00000008150527322177071490000017871293184767529142_" gradientUnits="userSpaceOnUse" x1="169.9781" y1="64.5" x2="473.279" y2="64.5" gradientTransform="matrix(1 0 0 1 0 2)">
				<stop  offset="0" style="stop-color:#1C733C"/>
				<stop  offset="1" style="stop-color:#97CA41"/>
			</linearGradient>
			<path style="fill:url(#SVGID_00000008150527322177071490000017871293184767529142_);" d="M355,3.5c0.6-0.4,1.3-0.6,2.1-0.6h23.2
				c0.8,0,1.5,0.2,2.1,0.6s0.9,0.9,0.9,1.5v123c0,0.6-0.3,1.1-0.9,1.5s-1.3,0.6-2.1,0.6h-23.1c-0.8,0-1.5-0.2-2.1-0.6
				c-0.6-0.4-0.9-0.9-0.9-1.5V76.5c0-0.6-0.4-0.9-1.3-0.9h-32c-0.8,0-1.3,0.3-1.3,0.9V128c0,0.6-0.3,1.1-0.9,1.5s-1.3,0.6-2.1,0.6
				h-23.2c-0.8,0-1.5-0.2-2.1-0.6c-0.6-0.4-0.9-0.9-0.9-1.5V5c0-0.6,0.3-1.1,0.9-1.5s1.3-0.6,2.1-0.6h23.2c0.8,0,1.5,0.2,2.1,0.6
				s0.9,0.9,0.9,1.5v51.4c0,0.6,0.4,0.9,1.3,0.9h32c0.8,0,1.3-0.3,1.3-0.9V5C354.1,4.4,354.4,3.9,355,3.5z"/>
			
				<linearGradient id="SVGID_00000182510119330009833930000016721952620986852278_" gradientUnits="userSpaceOnUse" x1="169.9781" y1="64.4047" x2="473.279" y2="64.4047" gradientTransform="matrix(1 0 0 1 0 2)">
				<stop  offset="0" style="stop-color:#1C733C"/>
				<stop  offset="1" style="stop-color:#97CA41"/>
			</linearGradient>
			<path style="fill:url(#SVGID_00000182510119330009833930000016721952620986852278_);" d="M418.5,122.6c-8.5-6-12.9-14-12.9-23.8
				v-4.7c0-0.6,0.3-1.1,0.9-1.5s1.3-0.6,2.1-0.6h22.9c0.8,0,1.5,0.2,2.1,0.6s0.9,0.9,0.9,1.5v3.6c0,4.7,1.6,8.5,4.9,11.5
				c3.3,2.9,7.5,4.3,12.8,4.3c5.2,0,9.4-1.4,12.9-4.1c3.3-2.7,5-6.3,5-10.9c0-3.1-0.9-5.9-2.8-8.2c-1.8-2.3-4.4-4.5-7.8-6.5
				c-3.3-2.1-8.7-5-16.1-8.9c-8.4-4.3-15.2-8.2-20.3-11.7s-9.4-7.5-12.9-12.3c-3.4-4.8-5.1-10.4-5.1-16.7c0-10,4.2-18.1,12.6-24
				s19.5-8.9,33.3-8.9c14,0,25.2,3.1,33.8,9.3c8.5,6.2,12.9,14.6,12.9,24.8v4.3c0,0.6-0.3,1.1-0.9,1.5s-1.3,0.6-2.1,0.6H472
				c-0.8,0-1.5-0.2-2.1-0.6c-0.6-0.4-0.9-0.9-0.9-1.5V35c0-4.7-1.6-8.5-4.9-11.4s-7.6-4.3-13-4.3c-5,0-9.1,1.3-12.4,3.9
				c-3.2,2.6-4.8,6.2-4.8,10.9c0,4.3,1.7,8,5.1,11.1c3.4,3,10.3,7.2,20.3,12.6c10.3,5.4,18,9.9,23.2,13.4s9.2,7.2,12.1,11.4
				c2.8,4.1,4.3,9,4.3,14.8c0,10.4-4.3,18.6-12.9,24.8c-8.5,6.2-19.8,9.3-33.8,9.3C438.3,131.7,427,128.7,418.5,122.6z"/>
		</g>
	</g>
</g>
</svg>
