<?xml version="1.0" encoding="utf-8"?>
<!-- Generator: Adobe Illustrator 25.4.1, SVG Export Plug-In . SVG Version: 6.00 Build 0)  -->
<svg version="1.1" id="Layer_1" xmlns="http://www.w3.org/2000/svg" xmlns:xlink="http://www.w3.org/1999/xlink" x="0px" y="0px"
	 viewBox="0 0 250 250" style="enable-background:new 0 0 250 250;" xml:space="preserve">
<style type="text/css">
	.st0{fill:url(#SVGID_1_);}
	.st1{fill:#FFFFFF;}
</style>
<linearGradient id="SVGID_1_" gradientUnits="userSpaceOnUse" x1="0" y1="125" x2="250" y2="125">
	<stop  offset="0" style="stop-color:#17733B"/>
	<stop  offset="1" style="stop-color:#96C940"/>
</linearGradient>
<circle class="st0" cx="125" cy="125" r="125"/>
<g>
	<path class="st1" d="M60.3,215.8c-0.4,0-0.7-0.1-1.1-0.2c-0.8-0.3-1.4-0.8-1.7-1.5L38,172.7c-0.3-0.7-0.4-1.5-0.1-2.2
		c0.3-0.7,0.8-1.3,1.6-1.6l14.5-6.3c1.5-0.7,3.2-0.1,4,1.3L77.7,205c0.7,1.4,0.1,3.2-1.4,3.8l-14.7,6.6v0
		C61.1,215.6,60.7,215.8,60.3,215.8L60.3,215.8z M44.7,172.9l17.1,36.2L71,205l-17.3-36L44.7,172.9z"/>
	<path class="st1" d="M127.6,206.1c-11.6-0.6-23.2-1.9-34.7-3.9c-4.7-0.7-9-1.4-11.1-1.6l-8.1,3.6c-1.5,0.7-3.3,0-4-1.4L55.1,172
		l0,0c-0.4-0.7-0.4-1.5-0.2-2.2c0.2-0.7,0.8-1.4,1.5-1.7l8.4-3.9c7.8-6.1,20.3-13,31.1-11.9c4.3,0.6,8.6,1.9,12.5,3.8
		c7.8,3.7,16.2,5.9,24.9,6.5c4.2,0,8.2,1.2,11.8,3.3c7.2-5.9,27.4-20.4,35.1-16.8c2.2,1,4.4,3.6,2.4,10c-4.6,14-39,44.6-50.2,46.8v0
		C130.8,206.2,129.2,206.2,127.6,206.1L127.6,206.1z M81.4,194.8h0.2c2.1,0.1,6.6,0.8,12.3,1.7c11.7,1.8,31.2,4.8,37.3,3.7
		c8.2-1.7,41.5-30.2,45.6-42.9c0.4-1,0.6-2.1,0.5-3.2c-4.5-1.1-26.6,13.4-30,17.3c-0.6,0.7-1.5,1.1-2.5,1.1c-1,0-1.9-0.5-2.4-1.3
		c-1.1-1.7-4.5-2.9-9.5-3.1l0,0c-9.3-0.7-18.4-3.1-26.9-7c-3.3-1.6-6.8-2.7-10.5-3.3c-8.4-0.7-19.5,5-26.8,10.9l0,0
		c-0.2,0.2-0.4,0.3-0.7,0.4l-6,2.9l12.3,25.7l6-2.6h0C80.6,195,81,194.9,81.4,194.8L81.4,194.8z"/>
	<path class="st1" d="M149.8,148.2h-0.2c-7.5-0.3-14.5-3.7-19.2-9.3c-4.8,5.6-11.8,8.9-19.3,9.3c-1,0.1-1.9-0.3-2.5-1
		c-0.6-0.7-0.9-1.7-0.6-2.6c0.5-1.9,1.2-3.8,2.2-5.5c-12.7,4.5-26.9,3.3-38.7-3.1c-0.9-0.5-1.5-1.4-1.5-2.4c0-1,0.5-2,1.4-2.5
		c7.4-4.7,15.7-7.8,24.5-9c-16.2-7.7-28.9-20.7-36-36.7c-0.4-0.9-0.3-2,0.3-2.9c0.6-0.8,1.7-1.3,2.7-1.2
		c18.9,1.3,36.6,9.3,49.7,22.4c-5.2-22.1,0-46,15.4-71.3v0c0.5-0.9,1.5-1.4,2.6-1.4c1.1,0,2.1,0.6,2.6,1.4
		c15.3,25.3,20.4,49.1,15,71.3c13.2-13.1,31-21.1,49.9-22.4c1.1-0.1,2.1,0.4,2.7,1.2c0.6,0.8,0.7,1.9,0.3,2.9
		c-7.2,15.9-20,28.8-36,36.6c8.7,1.2,17.1,4.3,24.4,9c0.9,0.6,1.4,1.5,1.3,2.5c0,1-0.6,1.9-1.6,2.4c-11.8,6.4-26,7.6-38.7,3.1
		c0.9,1.8,1.6,3.6,2.2,5.5c0.2,0.9,0,1.8-0.5,2.5c-0.6,0.7-1.5,1.1-2.5,1.1L149.8,148.2z M130.4,130.6L130.4,130.6
		c1.1,0,2.2,0.7,2.7,1.6c2.3,4.7,6.7,8.2,12,9.4c-1.5-3-3.8-5.7-6.5-7.8c-1.2-0.9-1.5-2.6-0.6-3.9c0.9-1.2,2.7-1.6,4-0.8
		c14.1,7.6,27,9,39.4,4.1c-10.6-5.6-23-7.3-34.9-4.9c-1.7,0.4-3.3-0.7-3.7-2.3c-0.4-1.6,0.7-3.2,2.3-3.5c10.2-2.1,19.8-6.3,28-12.3
		c8.3-6,15.1-13.8,19.9-22.7c-23.4,3.6-40.8,15.3-52.9,35.9v0c-0.8,1.4-2.6,1.9-4.1,1.1c-1.4-0.8-2-2.5-1.2-3.9
		c13.5-24.2,12-51.5-4.6-81.1c-16.7,29.6-18.4,56.8-4.9,81.1c0.8,1.4,0.3,3.2-1.1,4c-1.5,0.8-3.3,0.3-4.1-1.1
		c-5.2-9.6-12.7-17.8-21.8-24.1c-9.1-6.3-19.7-10.4-30.8-11.9c4.8,8.9,11.6,16.6,19.9,22.7c8.3,6.1,17.8,10.3,28,12.4
		c1.7,0.3,2.7,1.9,2.4,3.5c-0.4,1.6-2,2.6-3.7,2.3c-11.9-2.5-24.3-0.8-35.1,4.7c12.3,4.7,25.4,3.3,39.5-4.1c1.4-0.7,3.1-0.3,3.9,0.9
		c0.9,1.2,0.6,2.9-0.6,3.9c-2.7,2.1-5,4.8-6.5,7.8c5.4-1.3,9.8-4.9,12.3-9.7C128.3,131.1,129.3,130.5,130.4,130.6L130.4,130.6z"/>
	<path class="st1" d="M123.6,183.6c-6.6-0.1-13.2-0.5-19.7-1.4c-1.6-0.2-2.8-1.7-2.6-3.2c0.2-1.5,1.6-2.6,3.2-2.5
		c24.9,2.9,33.4,0.4,36-2.3c1.1-1.1,1.6-2.6,1.2-4.1c-0.2-1.6,0.9-3,2.6-3.2c0.8-0.1,1.6,0.1,2.2,0.6c0.6,0.5,1.1,1.2,1.2,1.9
		c0.5,3.2-0.6,6.5-3,8.9C141.3,181.9,134.4,183.6,123.6,183.6L123.6,183.6z"/>
</g>
</svg>
